<svg width="33" height="32" viewBox="0 0 33 32" fill="none" xmlns="http://www.w3.org/2000/svg">
<path d="M6.36682 21.2478C6.16529 21.0464 5.83859 21.0462 5.63699 21.2478C5.43546 21.4494 5.43546 21.7761 5.63699 21.9776L10.522 26.8627C10.6229 26.9635 10.7549 27.0138 10.887 27.0138C11.019 27.0138 11.1511 26.9635 11.2519 26.8627C11.4535 26.6611 11.4535 26.3344 11.2519 26.1329L6.36682 21.2478Z" fill="#0024DE"/>
<path d="M32.4553 3.67633C32.4691 3.61675 32.7795 2.20339 31.5379 0.961778C30.2963 -0.279768 28.883 0.0303432 28.8234 0.0443798C28.7294 0.0661226 28.6434 0.113943 28.5751 0.18213L28.3769 0.380293L28.2553 0.258643C28.0537 0.0571778 27.7271 0.057109 27.5255 0.258712C27.324 0.460247 27.324 0.787009 27.5256 0.988474L27.6472 1.11006L27.0977 1.65954L26.976 1.53789C26.7744 1.33643 26.4478 1.33636 26.2463 1.53796C26.0447 1.7395 26.0447 2.06626 26.2463 2.26773L26.3679 2.38931L25.8184 2.9388L25.6968 2.81715C25.4952 2.61568 25.1685 2.61568 24.9669 2.81715C24.7654 3.01875 24.7654 3.34544 24.9669 3.54698L25.1905 3.77053L24.4186 5.31441L18.8613 10.6639C17.7231 9.78567 15.4743 8.51068 13.1319 9.76454C11.5706 10.5981 11.1549 11.6604 10.7881 12.5975C10.4959 13.3443 10.2435 13.9891 9.45369 14.5744C9.08633 14.8463 8.4081 14.9815 7.62275 15.1381C5.66073 15.5292 2.97369 16.0647 1.20798 19.3287C-0.895575 23.2179 2.22356 26.9877 3.66389 28.4296L4.07253 28.8376C5.16738 29.9324 7.60953 31.9999 10.4286 31.9999C11.3155 31.9999 12.2398 31.7952 13.1711 31.2912C16.4351 29.5256 16.9708 26.8392 17.3618 24.8776C17.5184 24.0925 17.6536 23.4144 17.9254 23.0472C18.5106 22.2571 19.1555 22.0046 19.9024 21.7123C20.8397 21.3453 21.9022 20.9294 22.7351 19.3685C23.989 17.0258 22.7137 14.777 21.8352 13.6387L27.1839 8.08229L28.7294 7.30953L28.9526 7.53267C29.0534 7.6334 29.1854 7.68376 29.3174 7.68376C29.4495 7.68376 29.5816 7.6334 29.6824 7.5326C29.8839 7.33106 29.8839 7.0043 29.6823 6.80283L29.5608 6.68125L30.1102 6.13176L30.2318 6.25335C30.3326 6.35408 30.4647 6.40444 30.5968 6.40444C30.7288 6.40444 30.8609 6.35408 30.9617 6.25335C31.1633 6.05174 31.1633 5.72505 30.9617 5.52351L30.8401 5.40193L31.3896 4.85251L31.5111 4.97409C31.6119 5.07483 31.7441 5.12519 31.8761 5.12519C32.0081 5.12519 32.1402 5.07483 32.241 4.97409C32.4426 4.77249 32.4426 4.4458 32.241 4.24426L32.1195 4.12268L32.3176 3.92459C32.3857 3.85633 32.4336 3.77032 32.4553 3.67633ZM21.8248 18.8821C21.1711 20.1073 20.4088 20.4058 19.5262 20.7513C18.7442 21.0574 17.8579 21.4044 17.096 22.4331C16.6866 22.9861 16.5304 23.7692 16.3497 24.676C15.979 26.535 15.5177 28.8485 12.68 30.3836C9.39906 32.1591 6.07804 29.3835 4.80305 28.1086L4.39242 27.6987C3.11709 26.422 0.342393 23.0986 2.11568 19.8199C3.65075 16.9823 5.96485 16.5211 7.82442 16.1503C8.73136 15.9696 9.51458 15.8135 10.0679 15.4039C11.0963 14.6417 11.4431 13.7555 11.7491 12.9738C12.0945 12.0913 12.3928 11.3293 13.6184 10.6749C15.3711 9.73661 17.1307 10.6657 18.1084 11.3887L14.7635 14.6085C14.7146 14.6064 14.6655 14.6049 14.6162 14.6049C13.737 14.6049 12.9113 14.9466 12.2914 15.5664C11.6716 16.1849 11.3303 17.0091 11.3305 17.8872C11.3307 18.7652 11.6723 19.5893 12.2916 20.2068C12.9107 20.8268 13.7354 21.1683 14.6138 21.1683C15.4922 21.1683 16.3165 20.8268 16.9336 20.2079C17.553 19.5912 17.8947 18.768 17.8957 17.89C17.8958 17.8382 17.8944 17.7865 17.8921 17.7351L21.1105 14.3916C21.8337 15.3693 22.7631 17.129 21.8248 18.8821ZM14.9007 15.6553C15.3941 15.7169 15.8497 15.9372 16.2052 16.2919C16.5614 16.6484 16.7827 17.1043 16.8449 17.598C16.8454 17.6033 16.8461 17.6085 16.8468 17.6137C16.8576 17.7043 16.8637 17.796 16.8635 17.8887C16.8628 18.4907 16.629 19.0545 16.204 19.4778C15.7807 19.9024 15.2158 20.1362 14.6137 20.1362C14.0113 20.1362 13.446 19.9023 13.0211 19.4767C12.5966 19.0534 12.3627 18.4888 12.3626 17.887C12.3625 17.2851 12.5962 16.7204 13.0208 16.2966C13.4461 15.8713 14.0127 15.6371 14.6162 15.6371C14.7069 15.6371 14.7966 15.643 14.8852 15.6535C14.8903 15.6541 14.8955 15.6548 14.9007 15.6553ZM17.6094 16.5405C17.4481 16.1806 17.2217 15.8491 16.9347 15.5619C16.6485 15.2763 16.318 15.051 15.959 14.8904L24.8332 6.34782L26.151 7.66718L17.6094 16.5405ZM31.4657 3.31675L31.026 3.75649C31.0255 3.75697 31.025 3.75732 31.0246 3.75773C31.0241 3.75821 31.0238 3.75869 31.0234 3.75911L29.7467 5.03574C29.7463 5.03623 29.7458 5.03657 29.7454 5.03698C29.7449 5.03746 29.7445 5.03795 29.7441 5.03836L28.5242 6.2583L26.9759 7.03244L25.4681 5.52296L26.2425 3.97427L29.1825 1.03423C29.4659 1.01345 30.1588 1.04221 30.8081 1.69154C31.459 2.34252 31.4864 3.03733 31.4657 3.31675Z" fill="#0024DE"/>
</svg>
