<svg width="32" height="32" viewBox="0 0 32 32" fill="none" xmlns="http://www.w3.org/2000/svg">
<g clip-path="url(#clip0_13_576)">
<path d="M29.4291 5.29295C25.9488 1.81363 20.2872 1.81363 16.8079 5.29295L15.9997 6.10061L15.1921 5.29295C11.7127 1.81316 6.05061 1.81316 2.5713 5.29295C-0.837377 8.70162 -0.859511 14.1047 2.51996 17.8614C5.60228 21.2866 14.6929 28.6865 15.0786 28.9997C15.3404 29.2125 15.6555 29.3161 15.9686 29.3161C15.979 29.3161 15.9894 29.3161 15.9992 29.3157C16.3233 29.3307 16.6496 29.2196 16.9199 28.9997C17.3056 28.6865 26.3972 21.2866 29.4804 17.861C32.8594 14.1047 32.8373 8.70162 29.4291 5.29295ZM27.38 15.9711C24.9768 18.6408 18.3709 24.1471 15.9992 26.101C13.6276 24.1476 7.02311 18.6418 4.62036 15.9715C2.26283 13.3512 2.2407 9.61948 4.56903 7.29115C5.75816 6.10249 7.3198 5.50769 8.88144 5.50769C10.4431 5.50769 12.0047 6.10202 13.1939 7.29115L14.9702 9.06754C15.1817 9.27899 15.4482 9.40521 15.728 9.44947C16.182 9.54696 16.6746 9.42028 17.0278 9.06801L18.8051 7.29115C21.1838 4.91337 25.0531 4.91384 27.4304 7.29115C29.7587 9.61948 29.7366 13.3512 27.38 15.9711Z" fill="black"/>
</g>
<defs>
<clipPath id="clip0_13_576">
<rect width="32" height="32" fill="white"/>
</clipPath>
</defs>
</svg>
