<svg width="28" height="22" viewBox="0 0 28 22" fill="none" xmlns="http://www.w3.org/2000/svg">
<path d="M23.3332 0.333252H4.6665C3.60564 0.333252 2.58822 0.754679 1.83808 1.50482C1.08793 2.25497 0.666504 3.27239 0.666504 4.33325V17.6666C0.666504 18.7274 1.08793 19.7449 1.83808 20.495C2.58822 21.2452 3.60564 21.6666 4.6665 21.6666H23.3332C24.394 21.6666 25.4115 21.2452 26.1616 20.495C26.9117 19.7449 27.3332 18.7274 27.3332 17.6666V4.33325C27.3332 3.27239 26.9117 2.25497 26.1616 1.50482C25.4115 0.754679 24.394 0.333252 23.3332 0.333252ZM22.5692 2.99992L14.7998 9.39992C14.5778 9.56884 14.3081 9.66339 14.0292 9.67009C13.7503 9.67679 13.4764 9.59531 13.2465 9.43725L5.4305 2.99992H22.5692ZM23.3332 18.9999H4.6665C4.31288 18.9999 3.97374 18.8594 3.7237 18.6094C3.47365 18.3593 3.33317 18.0202 3.33317 17.6666V4.73325L11.5998 11.5333C12.2877 12.0483 13.1245 12.3258 13.9838 12.3239C14.8733 12.3226 15.7381 12.032 16.4478 11.4959L24.6665 4.73325V17.6666C24.6665 18.0202 24.526 18.3593 24.276 18.6094C24.0259 18.8594 23.6868 18.9999 23.3332 18.9999Z" fill="#383838"/>
</svg>
